# xmcd
#
# Track frame offsets:
#	150
#	15725
#	29790
#	49047
#	62545
#	82160
#	102362
#	114060
#	127760
#	149332
#
# Disc length: 2306 seconds
#
# Revision: 1
# Processed by: cddbd v1.4PL0 Copyright (c) Steve Scherf et al.
# Submitted via: EasyCDDAExtractor 6.0.0.1
#
DISCID=8009000a
DTITLE=Ground Zero - Magnetic Heaven
DYEAR=1994
DGENRE=Blues
TTITLE0=Inside of Me
TTITLE1=Since You've Been Loving Me
TTITLE2=Lonely
TTITLE3=Sweetheart of Soul
TTITLE4=Got To Have You
TTITLE5=Soul Blue
TTITLE6=Leave Me Alone
TTITLE7=In My Mind
TTITLE8=Windows
TTITLE9=Left My Baby
EXTD=
EXTT0=
EXTT1=
EXTT2=
EXTT3=
EXTT4=
EXTT5=
EXTT6=
EXTT7=
EXTT8=
EXTT9=
PLAYORDER=
